<?xml version="1.0" encoding="utf-8"?>
<!-- Generator: Adobe Illustrator 22.1.0, SVG Export Plug-In . SVG Version: 6.00 Build 0)  -->
<svg version="1.1" xmlns="http://www.w3.org/2000/svg" xmlns:xlink="http://www.w3.org/1999/xlink" x="0px" y="0px"
	 viewBox="0 0 269 229" style="enable-background:new 0 0 269 229;" xml:space="preserve">
<style type="text/css">
	.st0{fill:#394049;}
	.st1{fill:none;}
	.st2{fill:#6C727A;}
	.st3{fill:#A6AAAF;}
	.st4{fill:#D1D3D5;}
	.st5{fill:#E76B20;}
	.st6{fill:#F39A62;}
	.st7{fill:#FBC5A2;}
	.st8{fill:#FEE1CF;}
	.st9{fill:#F1C45F;}
	.st10{fill:#F8D58E;}
	.st11{fill:#FCE6BC;}
	.st12{fill:#FDF2DD;}
	.st13{fill:#706661;}
	.st14{fill:#8A817E;}
	.st15{fill:#B3ADAA;}
	.st16{fill:#D0CCCB;}
	.st17{fill:#0097A6;}
	.st18{fill:#5BB7C0;}
	.st19{fill:#A2D6DA;}
	.st20{fill:#D0EAEC;}
	.st21{fill:#0097A9;}
	.st22{fill:none;stroke:#FFFFFF;stroke-miterlimit:10;}
	.st23{fill:none;stroke:#394049;stroke-miterlimit:10;}
</style>
<g id="Layer_1">
	<g>
		<path class="st21" d="M164.4,141l-11.9-11.9c0,0,0,0.1-0.1,0.1l-3.6,2.7c0,0-0.1,0-0.1,0c-0.1,0-0.1,0-0.2-0.1
			c-0.1-0.1-0.1-0.2,0-0.3l3.6-2.7c0,0,0.1,0,0.1,0l-6.7-6.7c0,0.1,0,0.2-0.1,0.2l-3.6,2.7c0,0-0.1,0-0.1,0c-0.1,0-0.1,0-0.2-0.1
			c-0.1-0.1-0.1-0.2,0-0.3l3.6-2.7c0,0,0.1,0,0.2,0l-6.8-6.8l-3.5,2.6c0,0-0.1,0-0.1,0c-0.1,0-0.1,0-0.2-0.1c-0.1-0.1-0.1-0.2,0-0.3
			l3.4-2.6l-6.6-6.6l-3.5,2.7c0,0-0.1,0-0.1,0c-0.1,0-0.1,0-0.2-0.1c-0.1-0.1-0.1-0.2,0-0.3l3.5-2.6l-6.4-6.4l-3.5,2.6
			c0,0-0.1,0-0.1,0c-0.1,0-0.1,0-0.2-0.1c-0.1-0.1-0.1-0.2,0-0.3l3.4-2.6l-6.6-6.6l-3.5,2.7c0,0-0.1,0-0.1,0c-0.1,0-0.1,0-0.2-0.1
			c-0.1-0.1-0.1-0.2,0-0.3l3.5-2.6l-6.5-6.5c0,0,0,0,0,0l-3.6,2.7c0,0-0.1,0-0.1,0c-0.1,0-0.1,0-0.2-0.1c-0.1-0.1-0.1-0.2,0-0.3
			l3.6-2.7l-6.6-6.6c0,0,0,0.1-0.1,0.1l-3.6,2.7c0,0-0.1,0-0.1,0c-0.1,0-0.1,0-0.2-0.1c-0.1-0.1-0.1-0.2,0-0.3l3.6-2.7c0,0,0,0,0,0
			l-6.5-6.5l-3.5,2.7c0,0-0.1,0-0.1,0c-0.1,0-0.1,0-0.2-0.1c-0.1-0.1-0.1-0.2,0-0.3l3.5-2.6l-6.6-6.6L87.1,70c0,0-0.1,0-0.1,0
			c-0.1,0-0.1,0-0.2-0.1c-0.1-0.1-0.1-0.2,0-0.3l3.5-2.7L84,60.6c-0.8-0.8-2.3-0.2-2.3,0.9V142c0,0.7,0.6,1.3,1.3,1.3h80.4
			C164.7,143.3,165.3,141.9,164.4,141z M92.7,130.4V85.7l44.7,44.7H92.7z"/>
		<path class="st21" d="M186.1,59.1h-12.6c-0.6,0-1.1,0.5-1.1,1.1v60.9c0,0,0,0,0,0c0,0,0,0.1,0,0.1c0,0,0,0.1,0,0.1c0,0,0,0,0,0
			l6.3,21.4h2.1l6.3-21.4c0,0,0,0,0,0c0,0,0-0.1,0-0.1c0,0,0-0.1,0-0.1c0,0,0,0,0,0V60.2C187.2,59.6,186.7,59.1,186.1,59.1z
			 M174.6,61.3h4.1V120h-4.1V61.3z M181.8,131.8h-4l-2.8-9.6h9.7L181.8,131.8z M185,120h-4.1V61.3h4.1V120z"/>
	</g>
</g>
<g id="Layer_2">
</g>
</svg>
