<?xml version="1.0" encoding="utf-8"?>
<!-- Generator: Adobe Illustrator 22.1.0, SVG Export Plug-In . SVG Version: 6.00 Build 0)  -->
<svg version="1.1" xmlns="http://www.w3.org/2000/svg" xmlns:xlink="http://www.w3.org/1999/xlink" x="0px" y="0px"
	 viewBox="0 0 269 229" style="enable-background:new 0 0 269 229;" xml:space="preserve">
<style type="text/css">
	.st0{fill:#394049;}
	.st1{fill:none;}
	.st2{fill:#6C727A;}
	.st3{fill:#A6AAAF;}
	.st4{fill:#D1D3D5;}
	.st5{fill:#E76B20;}
	.st6{fill:#F39A62;}
	.st7{fill:#FBC5A2;}
	.st8{fill:#FEE1CF;}
	.st9{fill:#F1C45F;}
	.st10{fill:#F8D58E;}
	.st11{fill:#FCE6BC;}
	.st12{fill:#FDF2DD;}
	.st13{fill:#706661;}
	.st14{fill:#8A817E;}
	.st15{fill:#B3ADAA;}
	.st16{fill:#D0CCCB;}
	.st17{fill:#0097A6;}
	.st18{fill:#5BB7C0;}
	.st19{fill:#A2D6DA;}
	.st20{fill:#D0EAEC;}
	.st21{fill:#0097A9;}
	.st22{fill:none;stroke:#FFFFFF;stroke-miterlimit:10;}
	.st23{fill:none;stroke:#394049;stroke-miterlimit:10;}
</style>
<g id="Layer_1">
	<g>
		<path class="st21" d="M91.2,158.5c0,0,3.3-33.7,24.2-47.1c0,0,8,6.1,17.8,5.8s19.3-5.8,19.3-5.8s20.3,13.3,25.3,47.1H91.2z"/>
		<path class="st21" d="M142.9,98.9L142.9,98.9c-0.4,0.4-1.1,0.7-1.8,0.7c-1.3,0-2.3-0.8-2.3-1.8c0-1,1-1.8,2.3-1.8s2.3,0.8,2.3,1.8
			c0,0,0,0,0,0l0,0c0,0,8.4-1.1,10.8-3.9c0.4-1.7,0.7-3.5,0.7-5.3c0-12-9.7-21.7-21.7-21.7c-12,0-21.7,9.7-21.7,21.7
			s9.7,21.7,21.7,21.7c9,0,16.8-5.5,20.1-13.4C152.2,97.7,149.6,98.7,142.9,98.9z"/>
		<path class="st21" d="M158.8,81.7v-2.8c0,0,0,0,0,0c0,0,0-0.1,0-0.1c0,0,0,0,0-0.1c0,0,0,0,0-0.1c0,0,0-0.1,0-0.1c0,0,0,0,0,0
			c-4.5-9.5-13.6-15.7-23.9-16.3c-11.4-0.6-22,5.8-27,16.3c0,0,0,0,0,0c0,0,0,0.1,0,0.1c0,0,0,0,0,0.1c0,0,0,0,0,0.1
			c0,0,0,0.1,0,0.1c0,0,0,0,0,0v1.6c-1,0.4-1.7,1.4-1.7,2.5v6.9c0,1.5,1.2,2.7,2.7,2.7c1.5,0,2.7-1.2,2.7-2.7V83
			c0-1.3-0.9-2.4-2.2-2.7v-1.2c4.8-9.8,14.7-15.8,25.4-15.2c9.6,0.5,18.2,6.4,22.5,15.2v2.4c-1.3,0.2-2.2,1.3-2.2,2.7V91
			c0,1.5,1.2,2.7,2.7,2.7c1.5,0,2.7-1.2,2.7-2.7v-6.9C160.4,83.1,159.7,82.1,158.8,81.7z"/>
	</g>
</g>
<g id="Layer_2">
</g>
</svg>
