<?xml version="1.0" encoding="utf-8"?>
<!-- Generator: Adobe Illustrator 22.1.0, SVG Export Plug-In . SVG Version: 6.00 Build 0)  -->
<svg version="1.1" id="Layer_1" xmlns="http://www.w3.org/2000/svg" xmlns:xlink="http://www.w3.org/1999/xlink" x="0px" y="0px"
	 viewBox="0 0 279 215" style="enable-background:new 0 0 279 215;" xml:space="preserve">
<style type="text/css">
	.st0{opacity:0.68;fill:#FFFFFF;}
	.st1{fill:#FFFFFF;}
	.st2{clip-path:url(#SVGID_8_);}
	.st3{clip-path:url(#SVGID_10_);}
	.st4{fill:#E5E2DA;}
	.st5{enable-background:new    ;}
	.st6{clip-path:url(#SVGID_14_);}
	.st7{clip-path:url(#SVGID_18_);}
	.st8{opacity:0.22;fill:#606060;}
	.st9{fill:#58595B;}
	.st10{fill:#606060;}
	.st11{fill:#FF6E09;}
	.st12{fill:#FF6E1E;}
	.st13{fill:#E76B20;}
	.st14{fill:#A6AAAF;}
	.st15{fill:#394049;}
	.st16{fill:#A6B1BA;}
</style>
<g>
	<g>
		<path class="st16" d="M185.1,58.4h-27c-0.9,0-1.6,0.7-1.6,1.6s0.7,1.6,1.6,1.6h25.4v29.2H88.2V61.5h25.4c0.9,0,1.6-0.7,1.6-1.6
			s-0.7-1.6-1.6-1.6h-27c-0.9,0-1.6,0.7-1.6,1.6v33.6v31.1c0,1.6,1.3,2.9,2.9,2.9h95.7c1.6,0,2.9-1.3,2.9-2.9V93.6V60
			C186.7,59.1,186,58.4,185.1,58.4z M183.5,124.5H88.2V93.8h95.3V124.5z"/>
		<g>
			<path class="st16" d="M158.1,81.4h-44.5c-0.9,0-1.6-0.7-1.6-1.6v-6.2c0-0.9,0.7-1.6,1.6-1.6s1.6,0.7,1.6,1.6v4.7h41.3v-4.7
				c0-0.9,0.7-1.6,1.6-1.6c0.9,0,1.6,0.7,1.6,1.6v6.2C159.7,80.7,159,81.4,158.1,81.4z"/>
		</g>
		<g>
			<path class="st16" d="M119,75.2c-0.7,0-1.4-0.5-1.5-1.2c-2.1-9.7-0.1-22.3,0-22.8c0.1-0.8,0.8-1.3,1.5-1.3h35.7
				c0.5,0,0.9,0.2,1.2,0.6s0.4,0.8,0.3,1.3c-2.6,12.9-0.1,21.4,0,21.5c0.3,0.8-0.2,1.7-1,1.9c-0.8,0.3-1.7-0.2-1.9-1
				c-0.1-0.4-2.6-8.4-0.4-21.1h-32.5c-0.4,3.4-1.4,12.9,0.2,20.4c0.2,0.8-0.4,1.7-1.2,1.8C119.2,75.2,119.1,75.2,119,75.2z"/>
		</g>
	</g>
	<g>
		<path class="st16" d="M237.8,161.6H41.2c-0.8,0-1.4-0.6-1.4-1.4c0-0.8,0.6-1.4,1.4-1.4h196.5c0.8,0,1.4,0.6,1.4,1.4
			C239.2,160.9,238.6,161.6,237.8,161.6z"/>
	</g>
</g>
</svg>
