<?xml version="1.0" encoding="utf-8"?>
<!-- Generator: Adobe Illustrator 22.1.0, SVG Export Plug-In . SVG Version: 6.00 Build 0)  -->
<svg version="1.1" xmlns="http://www.w3.org/2000/svg" xmlns:xlink="http://www.w3.org/1999/xlink" x="0px" y="0px"
	 viewBox="0 0 269 229" style="enable-background:new 0 0 269 229;" xml:space="preserve">
<style type="text/css">
	.st0{fill:#394049;}
	.st1{fill:none;}
	.st2{fill:#6C727A;}
	.st3{fill:#A6AAAF;}
	.st4{fill:#D1D3D5;}
	.st5{fill:#E76B20;}
	.st6{fill:#F39A62;}
	.st7{fill:#FBC5A2;}
	.st8{fill:#FEE1CF;}
	.st9{fill:#F1C45F;}
	.st10{fill:#F8D58E;}
	.st11{fill:#FCE6BC;}
	.st12{fill:#FDF2DD;}
	.st13{fill:#706661;}
	.st14{fill:#8A817E;}
	.st15{fill:#B3ADAA;}
	.st16{fill:#D0CCCB;}
	.st17{fill:#0097A6;}
	.st18{fill:#5BB7C0;}
	.st19{fill:#A2D6DA;}
	.st20{fill:#D0EAEC;}
	.st21{fill:#0097A9;}
	.st22{fill:none;stroke:#FFFFFF;stroke-miterlimit:10;}
	.st23{fill:none;stroke:#394049;stroke-miterlimit:10;}
</style>
<g id="Layer_1">
	<g>
		<g>
			<path class="st21" d="M84.7,157.4c-6.6,0-12-5.4-12-12s5.4-12,12-12s12,5.4,12,12S91.3,157.4,84.7,157.4z M84.7,136.4
				c-4.9,0-9,4-9,9c0,4.9,4,9,9,9s9-4,9-9C93.7,140.4,89.7,136.4,84.7,136.4z"/>
		</g>
		<g>
			<path class="st21" d="M151.9,146H93.6l-0.1-1.4c-0.4-4.6-4.3-8.2-8.9-8.2c-4.6,0-8.5,3.6-8.9,8.2l-0.1,1.4H64.7
				c-1.2,0-2.1-0.9-2.1-2.1v-73c0-1.2,0.9-2.1,2.1-2.1h87.2c1.2,0,2.1,0.9,2.1,2.1v73C153.9,145,153,146,151.9,146z M96.2,143H151
				V71.8H65.6V143h7.2c1.1-5.5,6-9.6,11.7-9.6C90.2,133.4,95.1,137.5,96.2,143z"/>
		</g>
		<path class="st21" d="M194.7,123.7c-3.6-1.9-7.1-2.5-9-2.7V91.2c0-1.2-0.9-2.1-2.1-2.1h-30.2c-1.2,0-2.1,0.9-2.1,2.1v30.2
			c0,1,0.7,1.8,1.6,2v20.1c0,0.8,0.7,1.5,1.5,1.5h5.5c0,0.1,0,0.2,0,0.3c0,6.6,5.4,12,12,12s12-5.4,12-12c0-0.1,0-0.2,0-0.3h21.2
			c0.4,0,0.8-0.2,1.1-0.5c0.3-0.3,0.4-0.7,0.4-1.1C205.6,131.8,199.6,126.3,194.7,123.7z M154.3,97.4h28.4v3.3H167c0,0,0,0,0,0
			c0,0,0,0,0,0c-3.7,0.1-10.6,1.8-10.6,7.9v12h-2.1V97.4z M165.5,120.6h-6.2v-12c0-3.3,3.9-4.4,6.2-4.7V120.6z M168.5,120.6v-16.9
			h14.2v16.9H168.5z M171.8,154.4c-4.9,0-9-4-9-9c0-0.8,0.1-1.5,0.3-2.2c0-0.1,0-0.1,0.1-0.2c0,0,0,0,0,0c0-0.1,0.1-0.3,0.1-0.5
			c0,0,0,0,0,0c0-0.1,0.1-0.2,0.1-0.3c1.2-3.3,4.3-5.6,7.9-5.8c0.2,0,0.3,0,0.5,0c0.2,0,0.4,0,0.5,0c0.1,0,0.2,0,0.4,0c0,0,0,0,0,0
			c1.4,0.1,2.8,0.6,3.9,1.4c1.9,1.3,3,3.1,3.6,4.5c0.4,1,0.5,2,0.5,3.1C180.7,150.3,176.7,154.4,171.8,154.4z M183.3,142.1
			c-0.1-0.4-0.3-0.8-0.5-1.2c-1-2.5-2.9-4.6-5.2-5.9c0,0,0,0-0.1,0c-0.1,0-0.1-0.1-0.2-0.1c-1.6-0.9-3.4-1.4-5.6-1.4
			c-7.3,0-10.5,5.1-11.5,8.7h-4.4v-17.7l11.2-0.2v5.3c0,0.8,0.7,1.5,1.5,1.5c0.8,0,1.5-0.7,1.5-1.5v-5.4l14.2-0.3
			c0.7,0,9.8,0.2,15.3,7.9h-3.2c-1,0-1.8,0.8-1.8,1.8v1.2c0,1,0.8,1.8,1.8,1.8h4.2c0.5,0,0.9-0.2,1.3-0.5c0.7,1.8,1.2,3.8,1.5,6.1
			H183.3z"/>
		<g>
			<g>
				<path class="st21" d="M126.5,104.5H80c-0.4,0-0.8-0.7-0.8-1.5s0.4-1.5,0.8-1.5h46.5c0.4,0,0.8,0.7,0.8,1.5
					S126.9,104.5,126.5,104.5z"/>
			</g>
			<g>
				<path class="st21" d="M126.1,106.5c0-0.3,0.1-0.6,0.3-0.7l4.2-2.7l-4.2-2.7c-0.2-0.2-0.3-0.4-0.3-0.7c0-0.4,0.1-0.7,0.4-0.9
					c0.3-0.3,0.5-0.4,0.8-0.4c0.2,0,0.3,0,0.3,0.1l5.5,3.6c0.4,0.2,0.6,0.6,0.6,1c0,0.4-0.2,0.8-0.6,1l-5.5,3.6
					c-0.1,0.1-0.2,0.1-0.3,0.1c-0.3,0-0.6-0.1-0.8-0.4C126.3,107.1,126.1,106.8,126.1,106.5z"/>
			</g>
		</g>
	</g>
</g>
<g id="Layer_2">
</g>
</svg>
