<?xml version="1.0" encoding="utf-8"?>
<!-- Generator: Adobe Illustrator 22.1.0, SVG Export Plug-In . SVG Version: 6.00 Build 0)  -->
<svg version="1.1" xmlns="http://www.w3.org/2000/svg" xmlns:xlink="http://www.w3.org/1999/xlink" x="0px" y="0px"
	 viewBox="0 0 269 229" style="enable-background:new 0 0 269 229;" xml:space="preserve">
<style type="text/css">
	.st0{fill:#394049;}
	.st1{fill:none;}
	.st2{fill:#6C727A;}
	.st3{fill:#A6AAAF;}
	.st4{fill:#D1D3D5;}
	.st5{fill:#E76B20;}
	.st6{fill:#F39A62;}
	.st7{fill:#FBC5A2;}
	.st8{fill:#FEE1CF;}
	.st9{fill:#F1C45F;}
	.st10{fill:#F8D58E;}
	.st11{fill:#FCE6BC;}
	.st12{fill:#FDF2DD;}
	.st13{fill:#706661;}
	.st14{fill:#8A817E;}
	.st15{fill:#B3ADAA;}
	.st16{fill:#D0CCCB;}
	.st17{fill:#0097A6;}
	.st18{fill:#5BB7C0;}
	.st19{fill:#A2D6DA;}
	.st20{fill:#D0EAEC;}
	.st21{fill:#0097A9;}
	.st22{fill:none;stroke:#FFFFFF;stroke-miterlimit:10;}
	.st23{fill:none;stroke:#394049;stroke-miterlimit:10;}
</style>
<g id="Layer_1">
	<g>
		<path class="st21" d="M179.1,69.8H89.9c-0.9,0-1.6,0.7-1.6,1.6v86.1c0,0.9,0.7,1.6,1.6,1.6h89.2c0.9,0,1.6-0.7,1.6-1.6V71.4
			C180.7,70.5,180,69.8,179.1,69.8z M177.4,73.1v5h-41.2v11.5h-3.4V78.1H91.6v-5H177.4z M144,90.7v10.2h-7.7h-4.9h-27.1V90.7H144z
			 M131.7,89.4H92V79.3h39.7V89.4z M103.1,90.6v10.3H91.6V90.6H103.1z M91.6,102.1h11.5h27.1v10.2h-0.5H91.6V102.1z M131.4,102.1
			h4.9v10.2h-4.9V102.1z M137.4,102.1h7.7h32v10.2h-38.5h-1.2V102.1z M145.1,100.9V90.6h32.3v10.3H145.1z M137.4,89.4V79.3h39.7
			v10.2H137.4z M91.6,155.9v-42.5h38.2h1.7h4.9h2.4h38.8v42.5H91.6z"/>
		<path class="st21" d="M123,137.6h-17.2c-0.6,0-1.1-0.5-1.1-1.1v-0.2c0-0.6,0.5-1.1,1.1-1.1H123c0.6,0,1.1,0.5,1.1,1.1v0.2
			C124.1,137.1,123.6,137.6,123,137.6z"/>
		<path class="st21" d="M105.6,137v19.1h17.8V137H105.6z M120.4,152.7h-12.2v-3.3h12.2V152.7z M120.4,147.7h-12.2v-3.3h12.2V147.7z
			 M120.4,142.7h-12.2v-3.3h12.2V142.7z"/>
		<path class="st21" d="M114.9,141.4h-1c-0.2,0-0.3-0.2-0.3-0.3V141c0-0.2,0.2-0.3,0.3-0.3h1c0.2,0,0.3,0.2,0.3,0.3v0.1
			C115.3,141.3,115.1,141.4,114.9,141.4z"/>
		<path class="st21" d="M114.9,146.4h-1c-0.2,0-0.3-0.2-0.3-0.3V146c0-0.2,0.2-0.3,0.3-0.3h1c0.2,0,0.3,0.2,0.3,0.3v0.1
			C115.3,146.3,115.1,146.4,114.9,146.4z"/>
		<path class="st21" d="M114.8,151.4h-1c-0.2,0-0.3-0.2-0.3-0.3V151c0-0.2,0.2-0.3,0.3-0.3h1c0.2,0,0.3,0.2,0.3,0.3v0.1
			C115.1,151.3,115,151.4,114.8,151.4z"/>
		<path class="st21" d="M163.6,137.6h-35.3c-0.6,0-1.1-0.5-1.1-1.1v-0.2c0-0.6,0.5-1.1,1.1-1.1h35.3c0.6,0,1.1,0.5,1.1,1.1v0.2
			C164.6,137.1,164.2,137.6,163.6,137.6z"/>
		<path class="st21" d="M128.6,137v19.1h34.5V137H128.6z M157.5,152.7h-23.7v-3.3h23.7V152.7z M157.5,147.7h-23.7v-3.3h23.7V147.7z
			 M157.5,142.6h-23.7v-3.3h23.7V142.6z"/>
		<path class="st21" d="M147.1,141.4h-2.5c-0.2,0-0.3-0.2-0.3-0.3V141c0-0.2,0.2-0.3,0.3-0.3h2.5c0.2,0,0.3,0.2,0.3,0.3v0.1
			C147.5,141.2,147.3,141.4,147.1,141.4z"/>
		<path class="st21" d="M147.1,146.4h-2.5c-0.2,0-0.3-0.2-0.3-0.3V146c0-0.2,0.2-0.3,0.3-0.3h2.5c0.2,0,0.3,0.2,0.3,0.3v0.1
			C147.5,146.2,147.3,146.4,147.1,146.4z"/>
		<path class="st21" d="M146.9,151.4h-2.5c-0.2,0-0.3-0.2-0.3-0.3V151c0-0.2,0.2-0.3,0.3-0.3h2.5c0.2,0,0.3,0.2,0.3,0.3v0.1
			C147.2,151.2,147.1,151.4,146.9,151.4z"/>
		<rect x="107" y="129.3" class="st21" width="3.3" height="5.2"/>
		<rect x="111.8" y="124.4" class="st21" width="3.3" height="10.2"/>
		<rect x="151.7" y="130.7" class="st21" width="9.2" height="3.9"/>
		<rect x="141.1" y="127" class="st21" width="9.2" height="7.6"/>
	</g>
</g>
<g id="Layer_2">
</g>
</svg>
