<?xml version="1.0" encoding="utf-8"?>
<!-- Generator: Adobe Illustrator 22.1.0, SVG Export Plug-In . SVG Version: 6.00 Build 0)  -->
<svg version="1.1" xmlns="http://www.w3.org/2000/svg" xmlns:xlink="http://www.w3.org/1999/xlink" x="0px" y="0px"
	 viewBox="0 0 269 229" style="enable-background:new 0 0 269 229;" xml:space="preserve">
<style type="text/css">
	.st0{fill:#394049;}
	.st1{fill:none;}
	.st2{fill:#6C727A;}
	.st3{fill:#A6AAAF;}
	.st4{fill:#D1D3D5;}
	.st5{fill:#E76B20;}
	.st6{fill:#F39A62;}
	.st7{fill:#FBC5A2;}
	.st8{fill:#FEE1CF;}
	.st9{fill:#F1C45F;}
	.st10{fill:#F8D58E;}
	.st11{fill:#FCE6BC;}
	.st12{fill:#FDF2DD;}
	.st13{fill:#706661;}
	.st14{fill:#8A817E;}
	.st15{fill:#B3ADAA;}
	.st16{fill:#D0CCCB;}
	.st17{fill:#0097A6;}
	.st18{fill:#5BB7C0;}
	.st19{fill:#A2D6DA;}
	.st20{fill:#D0EAEC;}
	.st21{fill:#0097A9;}
	.st22{fill:none;stroke:#FFFFFF;stroke-miterlimit:10;}
	.st23{fill:none;stroke:#394049;stroke-miterlimit:10;}
</style>
<g id="Layer_1">
	<g>
		<path class="st21" d="M191.1,111.3V88.4c0-7-3.6-11-9.9-11c-4.1,0-67.3-2.3-80.1-2.7l-0.8-5.3c-0.2-1.3-1.3-2.3-2.7-2.3h-17
			c-1.5,0-2.7,1.2-2.7,2.7s1.2,2.7,2.7,2.7h14.7l0.8,5.2c0,0,0,0,0,0l6.8,45.6l-6.7,13.9c-0.4,0.8-0.3,1.8,0.1,2.6
			c0.5,0.8,1.4,1.3,2.3,1.3h4.9c-4,1.5-6.9,5.3-6.9,9.9c0,5.8,4.7,10.5,10.5,10.5c5.8,0,10.5-4.7,10.5-10.5c0-4.6-2.9-8.4-6.9-9.9
			h54.3c-4.3,1.3-7.5,5.3-7.5,10.1c0,5.8,4.7,10.5,10.5,10.5c5.8,0,10.5-4.7,10.5-10.5c0-4.8-3.2-8.8-7.5-10.1h4.3
			c1.5,0,2.7-1.2,2.7-2.7c0-1.5-1.2-2.7-2.7-2.7H103l3.1-6.5c0,0,0,0,0,0c0.1,0,0.2,0,0.3,0c2.7-0.3,66.7-7,74.8-8
			c5.5-0.7,7.9-3.4,8.9-5.5C191.2,113.8,191.1,112,191.1,111.3z M185.3,113.4c-0.7,1.4-2.3,2.2-4.7,2.5c-7.2,0.9-59.4,6.4-72,7.7
			c0-0.2,0-0.4,0-0.5l-6.6-42.9c15,0.5,75.1,2.7,79.2,2.7c2.2,0,4.5,0.4,4.5,5.5v23c0,0.1,0,0.2,0,0.3
			C185.7,111.7,185.7,112.6,185.3,113.4z"/>
		<path class="st21" d="M143.8,82.6c-13.3,0-24.1,7.2-24.1,15.9c0,0.6,0,1.1,0.1,1.7c0.2,3.6,2,11,12.2,14.6
			c13.9,4.9,23.8,0.1,27.7-2.2c3.7-2.1,7.6-6.8,7.9-11.4c0.2-0.9,0.4-1.8,0.4-2.7C168.1,89.7,157.2,82.6,143.8,82.6z M167.1,97.2
			c-0.1,0-0.1,0-0.2,0c-4,0.1-9.5,2.7-10.7,3.3c-1.3-1.1-8.5-6.8-10.1-8.1c-1.6-1.3-3.3-0.8-4-0.3c0,0-0.1,0-0.1,0.1
			c-0.8,0.8-3,2.9-4.3,2.9c-1.6-0.2-2.1-0.6-2.3-0.8c0,0-0.1-0.1-0.1-0.1c0.6-0.5,2.7-2.4,5-4.5c2.2-2.1,6.7-0.4,11,1.1
			c0.4,0.1,0.8,0.3,1.2,0.4c4.7,1.7,8.8-1.5,9.5-2.1C164.9,91.4,166.7,94.1,167.1,97.2z M143.8,83.5c7,0,13.2,2,17.5,5.1
			c-0.9,0.7-4.5,3.2-8.4,1.8c-0.4-0.1-0.8-0.3-1.2-0.4c-4.6-1.7-9.3-3.4-11.9-1c-0.2,0.2-0.4,0.4-0.6,0.6c-1.5,0.6-6.5,1.1-6.9,1.1
			c-0.4,0-3.3-1-6-2C130.6,85.5,136.9,83.5,143.8,83.5z M125.6,89.3c0,0,0.1,0.1,0.1,0.1c2.3,0.8,6.2,2.2,6.7,2.2
			c0.4,0,3.3-0.3,5.5-0.7c-1.7,1.6-3,2.7-3.1,2.7c-0.1,0.1-0.1,0.1-0.1,0.2c0,0.1-0.1,0.5,0.2,0.9c0.4,0.6,1.4,1,3,1.2c0,0,0,0,0,0
			c1.7,0,4.4-2.7,4.9-3.2c0.2-0.1,1.6-0.9,2.9,0.3c1.7,1.4,9.6,7.8,10.3,8.3c0.1,0.2,0.6,0.9-0.1,1.8c-0.6,0.9-1.4,0.7-1.7,0.7
			l-4.1-3.8c-0.2-0.2-0.5-0.2-0.6,0c-0.2,0.2-0.2,0.5,0,0.6l4,3.7c-0.1,0.3-0.2,0.9-0.9,1.6c-0.7,0.7-1.5,0.4-1.7,0.3l-3.1-3.1
			c-0.2-0.2-0.4-0.2-0.6,0c-0.2,0.2-0.2,0.4,0,0.6l3,3c-0.1,0.6-0.3,1-0.7,1.2c-0.5,0.3-1,0.2-1.2,0.1l-2.6-2.5
			c-0.2-0.2-0.5-0.2-0.6,0c-0.2,0.2-0.2,0.5,0,0.6l2.3,2.2c-1.3,1-2.7,0.1-3.3-0.3c0.2-0.6,0.4-1.9-0.5-3c-0.7-0.8-1.6-1-2.4-0.9
			c0.1-0.6,0.1-1.5-0.6-2.3c-0.9-1-2.1-0.6-2.8-0.3c-0.3-0.7-0.8-1.4-2-1.4c0,0-0.1,0-0.1,0c-0.9,0-1.4,0.3-1.8,0.5
			c-0.5-0.8-1.3-1-2.1-0.9c-0.4,0.1-0.8,0.2-1.2,0.5c-1.8-1.7-8.1-3-9.8-3.3C121.2,94.1,122.9,91.5,125.6,89.3z M139.5,106.9
			c-0.1-0.1-0.2-0.1-0.3-0.1c-0.1,0-0.2,0-0.2,0.1c0,0-1.1,0.7-1.9,0.3c-0.7-0.3-0.5-1.1-0.5-1.2c0-0.2,0-0.4-0.2-0.5
			c-0.2-0.1-0.4-0.1-0.5,0c0,0-0.8,0.6-2.2-0.4c-0.8-0.8-0.6-1.7-0.5-1.7c0-0.2,0-0.3-0.1-0.4c-0.1-0.1-0.3-0.2-0.4-0.1
			c-0.3,0.1-1.1,0.2-1.6-0.2c-0.2-0.2-0.3-0.4-0.4-0.8c0-0.8,0.6-1.2,1.2-1.3c0.5-0.1,1.2,0.1,1.4,0.9c0,0.2,0.2,0.3,0.4,0.3
			c0.2,0,0.4-0.1,0.4-0.3c0,0,0.3-0.5,1.5-0.6c1.1,0,1.3,1.1,1.3,1.2c0,0.2,0.1,0.3,0.2,0.3c0.1,0.1,0.3,0.1,0.4,0
			c0,0,1.5-0.9,2.2-0.1c0.8,0.9,0.3,2.1,0.3,2.1c-0.1,0.2,0,0.4,0.1,0.5c0.1,0.1,0.3,0.2,0.5,0.1c0.1,0,1.3-0.6,2.1,0.4
			c0.8,1,0.3,2.3,0.3,2.4c-0.1,0.2-0.8,1.4-2.5,0.6c-1.1-0.6-0.9-1.3-0.9-1.3C139.7,107.2,139.6,107,139.5,106.9z M143.8,113.6
			c-12.8,0-23.2-6.8-23.2-15.1c0-0.2,0-0.4,0-0.6c3.3,0.6,8.3,1.9,9.4,3.1c-0.1,0.3-0.2,0.6-0.2,1c0,0.8,0.4,1.2,0.7,1.5
			c0.5,0.4,1.2,0.4,1.7,0.4c0,0.5,0.2,1.3,0.9,2c0,0,0,0,0,0c1.1,0.8,2,0.8,2.5,0.7c0.1,0.5,0.3,1,1,1.4c0.7,0.3,1.5,0.2,2,0
			c0.1,0.5,0.4,1.1,1.4,1.6c0.5,0.3,1,0.4,1.4,0.4c0.9,0,1.6-0.5,2-0.9c1.1,0.7,2.9,1.4,4.4,0c0.2,0,0.4,0.1,0.7,0.1
			c0.4,0,0.8-0.1,1.2-0.3c0.5-0.3,0.8-0.9,1-1.6c0.1,0,0.3,0.1,0.5,0.1c0.5,0,1.1-0.1,1.7-0.7c0.7-0.7,1-1.4,1.1-1.8
			c0.1,0,0.2,0,0.3,0c0.6,0,1.4-0.2,2-1.1c0.7-0.9,0.6-1.8,0.3-2.4c1.5-0.7,6.6-3,10.2-3.1c0.1,0,0.1,0,0.2-0.1c0,0.2,0,0.4,0,0.6
			C167.2,106.8,156.7,113.6,143.8,113.6z"/>
	</g>
</g>
<g id="Layer_2">
</g>
</svg>
