<?xml version="1.0" encoding="utf-8"?>
<!-- Generator: Adobe Illustrator 22.1.0, SVG Export Plug-In . SVG Version: 6.00 Build 0)  -->
<svg version="1.1" xmlns="http://www.w3.org/2000/svg" xmlns:xlink="http://www.w3.org/1999/xlink" x="0px" y="0px"
	 viewBox="0 0 269 229" style="enable-background:new 0 0 269 229;" xml:space="preserve">
<style type="text/css">
	.st0{fill:#394049;}
	.st1{fill:none;}
	.st2{fill:#6C727A;}
	.st3{fill:#A6AAAF;}
	.st4{fill:#D1D3D5;}
	.st5{fill:#E76B20;}
	.st6{fill:#F39A62;}
	.st7{fill:#FBC5A2;}
	.st8{fill:#FEE1CF;}
	.st9{fill:#F1C45F;}
	.st10{fill:#F8D58E;}
	.st11{fill:#FCE6BC;}
	.st12{fill:#FDF2DD;}
	.st13{fill:#706661;}
	.st14{fill:#8A817E;}
	.st15{fill:#B3ADAA;}
	.st16{fill:#D0CCCB;}
	.st17{fill:#0097A6;}
	.st18{fill:#5BB7C0;}
	.st19{fill:#A2D6DA;}
	.st20{fill:#D0EAEC;}
	.st21{fill:#0097A9;}
	.st22{fill:none;stroke:#FFFFFF;stroke-miterlimit:10;}
	.st23{fill:none;stroke:#394049;stroke-miterlimit:10;}
</style>
<g id="Layer_1">
	<g>
		<circle class="st21" cx="99.1" cy="113.1" r="11.9"/>
		<circle class="st21" cx="171.7" cy="113.1" r="11.9"/>
		<circle class="st21" cx="134.5" cy="61.6" r="11.9"/>
		<path class="st21" d="M200.7,113.5c0-7.9-7-15.2-19.8-20.5c-7.4-3.1-16.2-5.4-25.8-6.7c-4.1-8.7-10-12.7-10-12.7
			s-5.2,2.9-10.5,3.1c-5.2,0.2-9.6-3.1-9.6-3.1c-4.9,3.3-7.9,8.1-9.9,12.6c-10,1.3-19.2,3.6-26.8,6.8c-12.8,5.4-19.8,12.7-19.8,20.5
			c0,6.7,5.2,13,14.6,18.1c-6,8.6-6.6,19-6.6,19h46.9c-0.4-3.3-1.1-6.3-2.1-9c4.3,0.4,8.8,0.6,13.3,0.6c5.6,0,11-0.3,16.3-0.9
			c-1.7,5.2-1.9,9.3-1.9,9.3h46.9c-1.1-9.2-4.8-15.8-8.1-19.9C196.1,125.8,200.7,119.8,200.7,113.5z M134.5,139.3
			c-4.9,0-9.8-0.2-14.5-0.7c-4.2-9.3-10.4-13.6-10.4-13.6s-5.2,2.9-10.5,3.1c-5.2,0.2-9.6-3.1-9.6-3.1c-1.8,1.3-3.4,2.7-4.8,4.3
			c-8.7-4.5-13.6-10.2-13.6-15.8c0-6.6,6.6-13.1,18.1-17.9c7-3,15.4-5.1,24.6-6.4c-1.9,5.5-2.1,9.9-2.1,9.9h46.9
			c-0.4-3.7-1.3-6.9-2.4-9.8c8.7,1.3,16.7,3.4,23.4,6.3c11.5,4.8,18.1,11.4,18.1,17.9c0,5.3-4.3,10.6-11.9,14.9
			c-2.1-2.3-3.8-3.4-3.8-3.4s-5.2,2.9-10.5,3.1c-5.2,0.2-9.6-3.1-9.6-3.1c-5.1,3.5-8.2,8.6-10.2,13.3
			C146.3,139,140.5,139.3,134.5,139.3z"/>
	</g>
</g>
<g id="Layer_2">
</g>
</svg>
