<?xml version="1.0" encoding="utf-8"?>
<!-- Generator: Adobe Illustrator 22.1.0, SVG Export Plug-In . SVG Version: 6.00 Build 0)  -->
<svg version="1.1" xmlns="http://www.w3.org/2000/svg" xmlns:xlink="http://www.w3.org/1999/xlink" x="0px" y="0px"
	 viewBox="0 0 269 229" style="enable-background:new 0 0 269 229;" xml:space="preserve">
<style type="text/css">
	.st0{fill:#394049;}
	.st1{fill:none;}
	.st2{fill:#6C727A;}
	.st3{fill:#A6AAAF;}
	.st4{fill:#D1D3D5;}
	.st5{fill:#E76B20;}
	.st6{fill:#F39A62;}
	.st7{fill:#FBC5A2;}
	.st8{fill:#FEE1CF;}
	.st9{fill:#F1C45F;}
	.st10{fill:#F8D58E;}
	.st11{fill:#FCE6BC;}
	.st12{fill:#FDF2DD;}
	.st13{fill:#706661;}
	.st14{fill:#8A817E;}
	.st15{fill:#B3ADAA;}
	.st16{fill:#D0CCCB;}
	.st17{fill:#0097A6;}
	.st18{fill:#5BB7C0;}
	.st19{fill:#A2D6DA;}
	.st20{fill:#D0EAEC;}
	.st21{fill:#0097A9;}
	.st22{fill:none;stroke:#FFFFFF;stroke-miterlimit:10;}
	.st23{fill:none;stroke:#394049;stroke-miterlimit:10;}
</style>
<g id="Layer_1">
	<g>
		<path class="st21" d="M132,115.6h-22.8c-0.4,0-0.7,0.4-0.7,1v14.8c0,0.5,0.3,1,0.7,1H132c0.4,0,0.7-0.4,0.7-1v-14.8
			C132.8,116,132.4,115.6,132,115.6z M120.6,123.5l-8.9-6h17.8L120.6,123.5z M109.9,118.5l5.2,3.5l-5.2,6.7V118.5z M116.5,122.9
			l3.7,2.5c0.1,0.1,0.2,0.1,0.3,0.1s0.2,0,0.3-0.1l3.9-2.6c0,0.1,0.1,0.1,0.1,0.2l5.7,7.3h-19.7L116.5,122.9z M126.2,121.9l5.1-3.4
			v10L126.2,121.9z"/>
		<path class="st21" d="M198.7,90.5C198.7,90.5,198.7,90.5,198.7,90.5c0-0.1,0-0.2-0.1-0.3c0,0,0,0,0,0c0-0.1,0-0.1-0.1-0.2
			c0,0,0,0,0,0c0-0.1-0.1-0.1-0.1-0.1c0,0,0,0,0,0c0-0.1-0.1-0.1-0.1-0.1c0,0,0,0,0,0c0,0,0,0-0.1,0c0,0,0,0-0.1,0c0,0,0,0,0,0
			c-0.1,0-0.1,0-0.2-0.1c0,0,0,0,0,0c-0.1,0-0.1,0-0.2,0c0,0,0,0,0,0h-96.3c-0.1,0-0.3,0-0.4,0.1l-30.1,18.8c0,0,0,0-0.1,0
			c0,0-0.1,0-0.1,0.1c0,0,0,0.1-0.1,0.1c0,0,0,0.1-0.1,0.1c0,0,0,0.1-0.1,0.1c0,0,0,0.1-0.1,0.1c0,0,0,0.1,0,0.1c0,0,0,0.1,0,0.1
			c0,0,0,0.1,0,0.1c0,0,0,0.1,0,0.1c0,0,0,0.1,0,0.1c0,0,0,0.1,0,0.1v28.7c0,0.7,0.4,1.3,1,1.3h104.1c0,0,0,0,0,0c0,0,0,0,0,0
			c0.1,0,0.1,0,0.2,0c0,0,0,0,0.1,0c0,0,0.1,0,0.1,0c0,0,0,0,0.1,0c0,0,0.1,0,0.1-0.1c0,0,0,0,0,0c0,0,0,0,0,0l22.3-20.5
			c0.3-0.2,0.4-0.6,0.4-1v-27C198.7,90.7,198.7,90.6,198.7,90.5z M101.7,92h92.7l-19.2,16.2H75.6L101.7,92z M174.4,137H72.3v-26.1
			h102.1V137z M196.7,117l-20.3,18.7v-25.5l20.3-17.1V117z"/>
	</g>
</g>
<g id="Layer_2">
</g>
</svg>
