<?xml version="1.0" encoding="utf-8"?>
<!-- Generator: Adobe Illustrator 22.1.0, SVG Export Plug-In . SVG Version: 6.00 Build 0)  -->
<svg version="1.1" xmlns="http://www.w3.org/2000/svg" xmlns:xlink="http://www.w3.org/1999/xlink" x="0px" y="0px"
	 viewBox="0 0 269 229" style="enable-background:new 0 0 269 229;" xml:space="preserve">
<style type="text/css">
	.st0{fill:#394049;}
	.st1{fill:none;}
	.st2{fill:#6C727A;}
	.st3{fill:#A6AAAF;}
	.st4{fill:#D1D3D5;}
	.st5{fill:#E76B20;}
	.st6{fill:#F39A62;}
	.st7{fill:#FBC5A2;}
	.st8{fill:#FEE1CF;}
	.st9{fill:#F1C45F;}
	.st10{fill:#F8D58E;}
	.st11{fill:#FCE6BC;}
	.st12{fill:#FDF2DD;}
	.st13{fill:#706661;}
	.st14{fill:#8A817E;}
	.st15{fill:#B3ADAA;}
	.st16{fill:#D0CCCB;}
	.st17{fill:#0097A6;}
	.st18{fill:#5BB7C0;}
	.st19{fill:#A2D6DA;}
	.st20{fill:#D0EAEC;}
	.st21{fill:#0097A9;}
	.st22{fill:none;stroke:#FFFFFF;stroke-miterlimit:10;}
	.st23{fill:none;stroke:#394049;stroke-miterlimit:10;}
</style>
<g id="Layer_1">
	<g>
		<g>
			<path class="st21" d="M93.1,129v-1.2c0-0.4,0.1-0.7,0.4-1.1c0.3-0.3,0.6-0.7,1-0.9l1.2-0.9c0.4-0.3,0.7-0.6,1-0.9
				c0.3-0.3,0.4-0.7,0.4-1.1c0-0.4-0.1-0.7-0.4-1c-0.3-0.3-0.6-0.4-1.1-0.4c-0.4,0-0.7,0.1-1,0.3c-0.3,0.2-0.4,0.6-0.4,1
				c0,0.1,0,0.2-0.1,0.3c-0.1,0.1-0.2,0.1-0.4,0.1c-0.3,0-0.5-0.2-0.5-0.6c0-0.6,0.2-1.1,0.7-1.5c0.4-0.4,1-0.6,1.7-0.6
				c0.7,0,1.3,0.2,1.8,0.7c0.5,0.4,0.7,1,0.7,1.6c0,0.4-0.1,0.8-0.3,1.1c-0.2,0.4-0.4,0.7-0.7,0.9c-0.3,0.3-0.6,0.5-0.9,0.8l-1,0.7
				c-0.3,0.2-0.5,0.4-0.7,0.7c-0.2,0.2-0.3,0.5-0.3,0.7v0.6h3.7c0.1,0,0.2,0,0.2,0.1c0.1,0.1,0.1,0.2,0.1,0.3c0,0.1,0,0.2-0.1,0.3
				c-0.1,0.1-0.1,0.1-0.2,0.1h-4.2c-0.1,0-0.2,0-0.3-0.1C93.2,129.2,93.1,129.1,93.1,129z"/>
		</g>
		<g>
			<path class="st21" d="M118.9,127.4c0-0.2,0-0.3,0.1-0.4c0.1-0.1,0.2-0.1,0.4-0.1c0.2,0,0.3,0,0.4,0.1c0.1,0.1,0.1,0.2,0.1,0.3
				c0,0.3,0.1,0.6,0.4,0.8c0.3,0.2,0.6,0.4,1.2,0.4c1.1,0,1.6-0.5,1.6-1.6v-0.2c0-1-0.5-1.5-1.6-1.5c-0.2,0-0.3-0.1-0.3-0.4
				c0-0.3,0.1-0.4,0.3-0.4c0.5,0,0.8-0.1,1-0.3c0.2-0.2,0.3-0.6,0.3-1.1c0-0.9-0.4-1.4-1.3-1.4c-0.5,0-0.9,0.1-1.1,0.3
				c-0.2,0.2-0.3,0.5-0.3,0.8c0,0.3-0.2,0.4-0.5,0.4c-0.2,0-0.4,0-0.4-0.1c-0.1-0.1-0.1-0.2-0.1-0.4c0-0.2,0-0.4,0.1-0.6
				c0.1-0.2,0.2-0.4,0.4-0.6c0.2-0.2,0.4-0.4,0.8-0.5c0.3-0.1,0.7-0.2,1.2-0.2c1.5,0,2.3,0.7,2.3,2.1c0,0.5-0.1,0.9-0.3,1.3
				c-0.2,0.3-0.4,0.6-0.7,0.7c0.8,0.3,1.2,1,1.2,1.9v0.2c0,0.9-0.2,1.5-0.7,1.9c-0.5,0.4-1.1,0.6-1.9,0.6c-0.8,0-1.4-0.2-1.9-0.6
				C119.1,128.4,118.9,128,118.9,127.4z"/>
		</g>
		<g>
			<path class="st21" d="M144.3,127c0-0.1,0-0.2,0.1-0.2l2.9-5.8c0.1-0.2,0.3-0.3,0.5-0.3c0.1,0,0.2,0,0.3,0.1
				c0.1,0.1,0.2,0.2,0.2,0.3c0,0.1,0,0.1,0,0.2l-2.6,5.2h2.1v-2c0-0.1,0-0.2,0.1-0.3c0.1-0.1,0.2-0.1,0.4-0.1c0.1,0,0.3,0,0.4,0.1
				c0.1,0.1,0.1,0.1,0.1,0.3v2h0.6c0.1,0,0.2,0,0.3,0.1c0.1,0.1,0.1,0.2,0.1,0.3c0,0.1,0,0.2-0.1,0.3c-0.1,0.1-0.2,0.2-0.3,0.2h-0.6
				v1.6c0,0.1,0,0.2-0.1,0.3c-0.1,0.1-0.2,0.1-0.4,0.1c-0.1,0-0.3,0-0.4-0.1c-0.1-0.1-0.1-0.1-0.1-0.3v-1.6h-3c-0.1,0-0.2,0-0.3-0.1
				C144.3,127.2,144.3,127.1,144.3,127z"/>
		</g>
		<g>
			<path class="st21" d="M169.7,127.2c0-0.3,0.2-0.5,0.5-0.5c0.3,0,0.5,0.1,0.5,0.4c0,0.4,0.1,0.7,0.4,0.9c0.3,0.2,0.7,0.3,1.1,0.3
				c0.5,0,0.9-0.1,1.2-0.4c0.3-0.3,0.4-0.7,0.4-1.3v-0.2c0-0.5-0.1-0.9-0.4-1.2c-0.3-0.3-0.7-0.4-1.1-0.4h-1.7
				c-0.3,0-0.5-0.1-0.5-0.4c0-0.1,0-0.2,0-0.3l0.2-3.3c0-0.2,0.1-0.4,0.3-0.4h3.4c0.1,0,0.2,0,0.2,0.1c0.1,0.1,0.1,0.2,0.1,0.3
				c0,0.1,0,0.2-0.1,0.3c-0.1,0.1-0.1,0.1-0.2,0.1h-2.8l-0.2,2.6h1.2c0.8,0,1.4,0.2,1.9,0.6c0.5,0.4,0.7,1,0.7,1.9v0.2
				c0,0.9-0.2,1.5-0.7,1.9c-0.5,0.4-1.1,0.6-1.9,0.6c-0.8,0-1.4-0.2-1.9-0.6C169.9,128.3,169.7,127.8,169.7,127.2z"/>
		</g>
		<g>
			<path class="st21" d="M195.4,126.2v-3.6c0-0.9,0.2-1.6,0.7-2c0.5-0.4,1.1-0.6,1.9-0.6s1.4,0.2,1.9,0.6c0.4,0.4,0.7,0.9,0.7,1.5
				c0,0.3-0.2,0.4-0.5,0.4c-0.3,0-0.5-0.1-0.5-0.4c0-0.4-0.1-0.7-0.4-0.9c-0.3-0.2-0.7-0.3-1.1-0.3c-1.1,0-1.6,0.6-1.6,1.7v1.7
				c0.4-0.5,1-0.7,1.7-0.7c1.6,0,2.4,0.8,2.4,2.4v0.3c0,0.9-0.2,1.6-0.7,2c-0.5,0.4-1.1,0.6-1.9,0.6c-0.8,0-1.4-0.2-1.9-0.6
				C195.6,127.8,195.4,127.1,195.4,126.2z M196.4,126.3c0,1.1,0.5,1.7,1.6,1.7c1,0,1.6-0.6,1.6-1.7v-0.3c0-1.1-0.5-1.6-1.6-1.6
				c-1,0-1.6,0.5-1.6,1.5V126.3z"/>
		</g>
		<g>
			<path class="st21" d="M215.3,116.6l-0.3-1.8c0-0.1,0-0.2,0.1-0.3c0.1-0.1,0.2-0.1,0.3-0.2l4.2-0.7c0.1,0,0.2,0,0.3,0.1
				c0.1,0.1,0.2,0.1,0.2,0.2l0.2,1.1c0,0.1,0,0.3-0.1,0.5l-2.3,7.1c0,0.1-0.1,0.2-0.3,0.2c-0.2,0-0.3,0-0.4-0.1
				c-0.1-0.1-0.2-0.2-0.2-0.3c0-0.1,0-0.1,0-0.2l2.3-6.9l-0.1-0.7l-3.1,0.5l0.2,1.2c0,0.1,0,0.2-0.1,0.3c-0.1,0.1-0.2,0.1-0.3,0.2
				c-0.1,0-0.3,0-0.4,0C215.4,116.8,215.3,116.7,215.3,116.6z"/>
		</g>
		<g>
			<path class="st21" d="M220.4,103.5c0-0.4-0.9-11-33.3-11c-13.9,0-23.9,1.1-29.8,3.2c-4.7,1.7-5.9,3.7-6,5.1c0,0.2,0,0.4,0,0.7
				v10.2l-51.3-0.3c0,0,0,0,0,0c0,0,0,0,0,0L49.1,111c0,0,0,0,0,0c-0.2,0-0.3,0.1-0.4,0.2c-0.1,0.1-0.2,0.3-0.2,0.4v24.3
				c0,0.3,0.3,0.6,0.6,0.6h138c0.2,0,1.1,0,2.5,0c0.1,0,0.2,0,0.2,0c0.1,0,0.2,0,0.3-0.1c7.1-0.3,24.8-1.6,30.2-8.4
				c0.1-0.1,0.1-0.2,0.1-0.4L220.4,103.5C220.4,103.5,220.4,103.5,220.4,103.5z M152.5,104.5c0.1,0.1,0.2,0.3,0.3,0.4
				c2.6,3.1,8.5,5.4,17.3,6.9l-17.6-0.1V104.5z M164,129.2c-0.3,0-0.6,0.3-0.6,0.6v5.5h-11.8v-22.5l11.6,0.1c0,0,0,0.1,0,0.1v8.1
				c0,0.3,0.3,0.6,0.6,0.6s0.6-0.3,0.6-0.6v-8.1c0,0,0-0.1,0-0.1L176,113v22.3h-11.4v-5.5C164.6,129.5,164.3,129.2,164,129.2z
				 M138.2,129.2c-0.3,0-0.6,0.3-0.6,0.6v5.5h-11.7v-22.6l11.7,0.1v8c0,0.3,0.3,0.6,0.6,0.6c0.3,0,0.6-0.3,0.6-0.6v-7.9l11.7,0.1
				v22.5h-11.7v-5.5C138.8,129.5,138.5,129.2,138.2,129.2z M112.7,129.4c-0.3,0-0.6,0.3-0.6,0.6v5.4h-11.5v-22.8l11.5,0.1
				c0,0,0,0,0,0v8.1c0,0.3,0.3,0.6,0.6,0.6c0.3,0,0.6-0.3,0.6-0.6v-8.1c0,0,0,0,0,0l11.5,0.1v22.6h-11.5V130
				C113.3,129.6,113,129.4,112.7,129.4z M86.9,128.9c-0.3,0-0.6,0.3-0.6,0.6v5.9H70.7c0.9-0.8,1-2.3,1-2.3s0.5-13.7,0-17.4
				c-0.2-1.8-0.9-2.8-1.5-3.3l16.1,0.1v7.9c0,0.3,0.3,0.6,0.6,0.6s0.6-0.3,0.6-0.6v-7.9l11.9,0.1v22.8H87.5v-5.9
				C87.5,129.1,87.3,128.9,86.9,128.9z M63,121.5c-1.1,0-2.1-0.9-2.1-2.1s0.9-2.1,2.1-2.1c1.1,0,2.1,0.9,2.1,2.1
				S64.1,121.5,63,121.5z M65.1,128.6c0,1.1-0.9,2.1-2.1,2.1c-1.1,0-2.1-0.9-2.1-2.1c0-1.1,0.9-2.1,2.1-2.1
				C64.1,126.5,65.1,127.5,65.1,128.6z M219.3,127.4c-1.2,1.4-3.1,2.6-5.3,3.6v-5.2c0-0.3-0.3-0.6-0.6-0.6c-0.3,0-0.6,0.3-0.6,0.6
				v5.7c-2.9,1.1-6.4,1.9-9.7,2.5v-21.9c4-0.5,7.3-1.1,9.8-1.9v7.5c0,0.3,0.3,0.6,0.6,0.6s0.6-0.3,0.6-0.6v-7.9
				c2.1-0.8,3.5-1.8,4.1-2.8c0.2-0.3,0.1-0.6-0.2-0.8c-0.3-0.2-0.6-0.1-0.8,0.2c-2.9,4.7-23.9,5.7-31.7,5.6c0,0,0,0,0,0
				c-0.3,0-0.6,0.3-0.6,0.6c0,0.3,0.3,0.6,0.6,0.6c0,0,0.1,0,0.2,0c0.4,0,1.6,0,3.3,0v7.8c0,0.3,0.3,0.6,0.6,0.6s0.6-0.3,0.6-0.6
				V113c2.7-0.1,6.4-0.3,10.1-0.6c0.6-0.1,1.1-0.1,1.7-0.2v21.9c-4.4,0.7-8.7,1-11.5,1.1V130c0-0.3-0.3-0.6-0.6-0.6
				s-0.6,0.3-0.6,0.6v5.3c-1.3,0-2.1,0-2.1,0h-9.9V113l3.3,0c0,0,0,0,0,0c0.3,0,0.6-0.2,0.6-0.6c0-0.3-0.2-0.6-0.5-0.6
				c-18-1.4-24.6-5-26.9-7.8c-0.9-1-1.2-2-1.2-2.7v-0.6c0.2-1.7,3.2-7.2,34.7-7.2c16.3,0,24.2,2.7,27.9,5c3.9,2.4,4.2,4.7,4.2,4.9
				V127.4z"/>
			<path class="st21" d="M185.8,97.7c-7.5,0-15.4,1.8-15.4,5.1c0,3.3,7.9,5.1,15.4,5.1s15.4-1.8,15.4-5.1
				C201.2,99.5,193.2,97.7,185.8,97.7z M185.8,106.7c-8.1,0-14.2-2.1-14.2-3.9c0-1.8,6.1-3.9,14.2-3.9s14.2,2.1,14.2,3.9
				C200,104.6,193.9,106.7,185.8,106.7z"/>
		</g>
	</g>
</g>
<g id="Layer_2">
</g>
</svg>
